        <svg
          class="group-5751"
          width="80"
          height="39"
          viewBox="0 0 80 39"
          fill="none"
          xmlns="http://www.w3.org/2000/svg"
        >
          <path
            d="M61.4561 17.7759H80V21.6795H61.4561V17.7759ZM80 34.6555H60.0793C58.7408 36.2234 57.1378 37.5445 55.3431 38.559H80V34.6555ZM77.5677 0.911228H55.3441C57.1417 1.92155 58.7453 3.24328 60.0803 4.81478H80V0.911228H77.5677ZM53.5834 17.568L33.1514 24.8001L34.6237 28.1605L53.5356 21.4566C53.0297 25.1695 51.1975 28.574 48.3772 31.0414C45.557 33.5088 41.9392 34.8723 38.192 34.8803C37.9681 34.8803 37.7602 34.8803 37.5364 34.8644L39.136 38.5282C44.0565 38.2796 48.6942 36.1533 52.0936 32.5873C55.493 29.0213 57.3952 24.2873 57.4083 19.3606C57.4083 19.0084 57.3924 18.6404 57.3765 18.2882L57.3287 17.5362L53.5834 17.568ZM24.7703 6.26718L26.3699 9.9479C29.046 6.85607 32.8381 4.95053 36.9161 4.64849C40.994 4.34645 45.0255 5.67251 48.1279 8.33634C48.9555 9.05226 49.7063 9.8524 50.3682 10.7238L51.1043 11.6997L53.1685 8.25973L52.8164 7.828C49.5644 3.92438 44.8982 1.46831 39.8393 0.997537C34.7805 0.52676 29.7412 2.07962 25.8247 5.31615C25.4567 5.61989 25.1045 5.9399 24.7683 6.27613M6.39948 33.5682L16.4638 9.90412L24.2729 28.1923L5.86926 34.7997L6.39948 33.5682ZM15.7276 1.71203L0.128328 38.2397L0 38.56H6.09607L25.6795 31.5199L28.6877 38.56H33.04L29.4398 30.176L28.0163 26.8484L17.1999 1.71203L16.4638 0L15.7276 1.71203Z"
            fill="white"
          />
        </svg>